# xmcd CD database file
#
# Track frame offsets:
#	183
#	20275
#	40678
#	56310
#
# Disc length: 993 seconds
#
# Revision: 0
# Processed by: cddbd v1.5.2PL0 Copyright (c) Steve Scherf et al.
# Submitted via: CDex 1.51
#
DISCID=2203df04
DTITLE=Quireboys - Tramps and Thieves
DYEAR=1992
DGENRE=Blues
TTITLE0=Tramps And Thieves
TTITLE1=Wild Wild Wild
TTITLE2=Pleasure And Pain
TTITLE3=Best Jobs
EXTD=YEAR: 1992
EXTT0=
EXTT1=
EXTT2=
EXTT3=
PLAYORDER=
